<svg width="14" height="16" viewBox="0 0 14 16" fill="none" xmlns="http://www.w3.org/2000/svg">
<path d="M12.3335 6C12.0874 6 11.8566 6.06706 11.6584 6.18391C11.5838 5.51856 11.0181 5 10.3335 5C10.008 5 9.70881 5.11784 9.4764 5.31413C9.243 4.92644 8.81818 4.66666 8.3335 4.66666C8.091 4.66666 7.86312 4.73175 7.66684 4.84569V1.33334C7.66681 0.597969 7.06884 0 6.3335 0C5.59815 0 5.00015 0.597969 5.00015 1.33334V10.2546C5.00015 10.4225 4.88946 10.5088 4.84193 10.5381C4.7944 10.5674 4.66646 10.6276 4.51771 10.5527L2.37709 9.48244C2.18209 9.38478 1.96368 9.33334 1.74559 9.33334C0.966933 9.33334 0.333496 9.96681 0.333496 10.7455V11C0.333496 11.0924 0.371902 11.1807 0.439277 11.2438L4.28662 14.8346C5.09193 15.5859 6.14209 16 7.24331 16H9.33346C11.7228 16 13.6668 14.056 13.6668 11.6667V7.33334C13.6668 6.59797 13.0688 6 12.3335 6ZM13.0002 11.6667C13.0002 13.6885 11.3553 15.3333 9.3335 15.3333H7.24334C6.31168 15.3333 5.42303 14.9831 4.74171 14.347L1.00015 10.8552V10.7455C1.00015 10.3343 1.33446 10 1.74559 10C1.8605 10 1.97606 10.0273 2.07893 10.0788L4.21956 11.1491C4.53175 11.3057 4.89565 11.2884 5.19253 11.1055C5.4894 10.9219 5.66681 10.6038 5.66681 10.2546V1.33334C5.66681 0.965844 5.96596 0.666687 6.33346 0.666687C6.70096 0.666687 7.00012 0.965844 7.00012 1.33334V6.33334C7.00012 6.51759 7.14921 6.66669 7.33346 6.66669C7.51771 6.66669 7.66681 6.51759 7.66681 6.33334V6C7.66681 5.6325 7.96596 5.33334 8.33346 5.33334C8.70096 5.33334 9.00012 5.6325 9.00012 6V6.33334C9.00012 6.334 9.00012 6.33466 9.00012 6.33531V6.33563C9.00143 6.51856 9.15018 6.66669 9.33346 6.66669C9.51771 6.66669 9.66681 6.51759 9.66681 6.33334V6.32812C9.6694 5.96322 9.96825 5.66666 10.3335 5.66666C10.701 5.66666 11.0001 5.96581 11.0001 6.33331V7.33331C11.0001 7.51756 11.1492 7.66666 11.3335 7.66666C11.5177 7.66666 11.6668 7.51756 11.6668 7.33331C11.6668 6.96581 11.966 6.66666 12.3335 6.66666C12.701 6.66666 13.0002 6.96581 13.0002 7.33334V11.6667Z" fill="black"/>
</svg>
